# xmcd
#
# Track frame offsets: 
#        150
#        18339
#        54119
#        68285
#        79889
#        92917
#        104895
#        121683
#        141030
#        153766
#        170258
#        185369
#        200989
#
# Disc length: 3275 seconds
#
# Revision: 0
# Processed by: cddbd v1.4PL0 Copyright (c) Steve Scherf et al.
# Submitted via: ExactAudioCopy v0.90a11
#
DISCID=a30cc90d
DTITLE=Canned Heat - The Best Of CD 4
DYEAR=1900
DGENRE=
TTITLE0=Wiskey And Wimmen
TTITLE1=So Sad (The World's In A Tangle)
TTITLE2=Help Me
TTITLE3=Shake It And Brake it
TTITLE4=Wiskey Headed Woman
TTITLE5=Sugar Bee
TTITLE6=Sweet Sixteen
TTITLE7=That's Alright Mama
TTITLE8=The Chipmunk Song
TTITLE9=The Story Of My Life
TTITLE10=Time Was
TTITLE11=World In A Jug
TTITLE12=Gotta Boogie
EXTD=
EXTT0=
EXTT1=
EXTT2=
EXTT3=
EXTT4=
EXTT5=
EXTT6=
EXTT7=
EXTT8=
EXTT9=
EXTT10=
EXTT11=
EXTT12=
PLAYORDER=
